# xmcd CD database file
#
# Track frame offsets:
#	150
#	20242
#	34635
#	52684
#	66530
#	88856
#	103733
#	114956
#	137993
#	145969
#
# Disc length: 2215 seconds
#
# Revision: 0
# Processed by: cddbd v1.5PL3 Copyright (c) Steve Scherf et al.
# Submitted via: CDex 1.51
#
DISCID=8f08a50a
DTITLE=Aromes du Jardin - Ottmar Liebert
DYEAR=1999
DGENRE=New Age
TTITLE0=Surrender 2 Love
TTITLE1=Shadows
TTITLE2=Thru the Trees/Cloudless Sky
TTITLE3=Shepherd's Nite Watch
TTITLE4=Waiting 4 Stars 2 Fall
TTITLE5=After the Rain
TTITLE6=Morning Glory
TTITLE7=Twilight in Galistero
TTITLE8=Moon Over Trees
TTITLE9=1st Rain/Cry of Faith
EXTD=YEAR: 1999
EXTT0=
EXTT1=
EXTT2=
EXTT3=
EXTT4=
EXTT5=
EXTT6=
EXTT7=
EXTT8=
EXTT9=
PLAYORDER=
